STARTFONT 2.1
COMMENT GFtoPK 2.3 output from METAFONT output 1994.05.19:0935
COMMENT identifier CMSY
COMMENT codingscheme TeX math symbols
COMMENT fontfacebyte
COMMENT Nr: 15335424
COMMENT Checksum 21222c9a
COMMENT 
COMMENT This file is made by pktobdf using the above specified pk file.
COMMENT 
FONT -metafont-cmsy10-medium-r-normal--17-160-75-75-p-92-metafont-fontspecific
SIZE 17 75 75
FONTBOUNDINGBOX 18 28 -1 -16
STARTPROPERTIES 22
FONT_ASCENT 12
FONT_DESCENT 3
DEFAULT_CHAR 65
FOUNDRY "metafont"
FAMILY_NAME "cmsy10"
WEIGHT_NAME "medium"
SLANT "r"
SETWIDTH_NAME "normal"
ADD_STYLE_NAME ""
PIXEL_SIZE 17
POINT_SIZE 160
RESOLUTION_X 75
RESOLUTION_Y 75
SPACING "P"
AVERAGE_WIDTH 92
CHARSET_REGISTRY "Metafont"
CHARSET_ENCODING "FONTSPECIFIC"
AVG_CAPITAL_WIDTH 22
AVG_LOWERCASE_WIDTH 12
COPYRIGHT "Metafont (public domain)"
FULLNAME "cmsy10"
DEVICE_FONT_NAME "cmsy10"
ENDPROPERTIES
CHARS 128
STARTCHAR Gamma
ENCODING 0
SWIDTH 776 0
DWIDTH 13 0
BBX 10 1 1 4
BITMAP
ffc0
ENDCHAR
STARTCHAR Delta
ENCODING 1
SWIDTH 298 0
DWIDTH 5 0
BBX 2 2 1 4
BITMAP
c0
c0
ENDCHAR
STARTCHAR Theta
ENCODING 2
SWIDTH 776 0
DWIDTH 13 0
BBX 8 9 2 0
BITMAP
81
42
24
18
10
18
24
42
81
ENDCHAR
STARTCHAR Lamdba
ENCODING 3
SWIDTH 478 0
DWIDTH 8 0
BBX 5 7 1 1
BITMAP
20
20
f8
20
f8
20
20
ENDCHAR
STARTCHAR Xi
ENCODING 4
SWIDTH 776 0
DWIDTH 13 0
BBX 10 9 1 0
BITMAP
0c00
0c00
0000
0000
ffc0
0000
0000
0c00
0c00
ENDCHAR
STARTCHAR Pi
ENCODING 5
SWIDTH 478 0
DWIDTH 8 0
BBX 7 7 0 1
BITMAP
10
28
44
82
44
28
10
ENDCHAR
STARTCHAR Sigma
ENCODING 6
SWIDTH 776 0
DWIDTH 13 0
BBX 10 11 1 0
BITMAP
0400
0400
0400
0400
0400
ffc0
0400
0400
0400
0400
ffc0
ENDCHAR
STARTCHAR Upsilon
ENCODING 7
SWIDTH 776 0
DWIDTH 13 0
BBX 10 11 1 -2
BITMAP
ffc0
0400
0400
0400
0400
ffc0
0400
0400
0400
0400
0400
ENDCHAR
STARTCHAR Phi
ENCODING 8
SWIDTH 776 0
DWIDTH 13 0
BBX 10 11 1 -1
BITMAP
1e00
2500
4480
8440
8440
ffc0
8440
8440
4480
2500
1e00
ENDCHAR
STARTCHAR Psi
ENCODING 9
SWIDTH 776 0
DWIDTH 13 0
BBX 10 11 1 -1
BITMAP
1e00
2100
4080
8040
8040
ffc0
8040
8040
4080
2100
1e00
ENDCHAR
STARTCHAR Omega
ENCODING 10
SWIDTH 776 0
DWIDTH 13 0
BBX 10 11 1 -1
BITMAP
1e00
2100
6180
9240
8c40
8840
8c40
9240
6180
2100
1e00
ENDCHAR
STARTCHAR arrowup
ENCODING 11
SWIDTH 776 0
DWIDTH 13 0
BBX 10 11 1 -1
BITMAP
1e00
2100
4180
8240
8440
8840
8840
9040
6080
2100
1e00
ENDCHAR
STARTCHAR arrowdown
ENCODING 12
SWIDTH 776 0
DWIDTH 13 0
BBX 10 11 1 -1
BITMAP
1e00
2100
4080
8040
8c40
8c40
8c40
8040
4080
2100
1e00
ENDCHAR
STARTCHAR quotesingle
ENCODING 13
SWIDTH 1015 0
DWIDTH 17 0
BBX 14 15 1 -3
BITMAP
0780
1860
2010
4008
4008
8004
8004
8004
8004
8004
4008
4008
2010
1860
0780
ENDCHAR
STARTCHAR exclamdown
ENCODING 14
SWIDTH 478 0
DWIDTH 8 0
BBX 5 5 1 2
BITMAP
70
88
88
88
70
ENDCHAR
STARTCHAR questiondown
ENCODING 15
SWIDTH 478 0
DWIDTH 8 0
BBX 5 5 1 2
BITMAP
70
f8
f8
f8
70
ENDCHAR
STARTCHAR dotlessi
ENCODING 16
SWIDTH 776 0
DWIDTH 13 0
BBX 10 9 1 0
BITMAP
8040
6180
1e00
0000
0000
0000
1e00
6180
8040
ENDCHAR
STARTCHAR dotlessj
ENCODING 17
SWIDTH 776 0
DWIDTH 13 0
BBX 10 9 1 0
BITMAP
ffc0
0000
0000
0000
ffc0
0000
0000
0000
ffc0
ENDCHAR
STARTCHAR grave
ENCODING 18
SWIDTH 776 0
DWIDTH 13 0
BBX 10 14 1 -3
BITMAP
1fc0
2000
4000
8000
8000
8000
8000
4000
2000
1fc0
0000
0000
0000
ffc0
ENDCHAR
STARTCHAR acute
ENCODING 19
SWIDTH 776 0
DWIDTH 13 0
BBX 10 14 1 -3
BITMAP
fe00
0100
0080
0040
0040
0040
0040
0080
0100
fe00
0000
0000
0000
ffc0
ENDCHAR
STARTCHAR caron
ENCODING 20
SWIDTH 776 0
DWIDTH 13 0
BBX 10 14 1 -3
BITMAP
0040
0180
0600
1800
6000
c000
3000
0c00
0300
00c0
0000
0000
0000
ffc0
ENDCHAR
STARTCHAR breve
ENCODING 21
SWIDTH 776 0
DWIDTH 13 0
BBX 10 14 1 -3
BITMAP
8000
6000
1800
0600
0180
00c0
0300
0c00
3000
c000
0000
0000
0000
ffc0
ENDCHAR
STARTCHAR macron
ENCODING 22
SWIDTH 776 0
DWIDTH 13 0
BBX 10 14 1 -3
BITMAP
0040
0040
0040
0080
0300
fc00
0700
0080
0040
0040
0000
0000
0000
ffc0
ENDCHAR
STARTCHAR ring
ENCODING 23
SWIDTH 776 0
DWIDTH 13 0
BBX 10 14 1 -3
BITMAP
8000
8000
8000
4000
3000
0fc0
3800
4000
8000
8000
0000
0000
0000
ffc0
ENDCHAR
STARTCHAR cedilla
ENCODING 24
SWIDTH 776 0
DWIDTH 13 0
BBX 10 4 1 2
BITMAP
7040
4840
8480
8380
ENDCHAR
STARTCHAR germandbls
ENCODING 25
SWIDTH 776 0
DWIDTH 13 0
BBX 10 8 1 0
BITMAP
7040
4840
8480
8380
7040
4840
8480
8380
ENDCHAR
STARTCHAR ae
ENCODING 26
SWIDTH 776 0
DWIDTH 13 0
BBX 10 11 1 -1
BITMAP
1fc0
2000
4000
8000
8000
8000
8000
8000
4000
2000
1fc0
ENDCHAR
STARTCHAR oe
ENCODING 27
SWIDTH 776 0
DWIDTH 13 0
BBX 10 11 1 -1
BITMAP
fe00
0100
0080
0040
0040
0040
0040
0040
0080
0100
fe00
ENDCHAR
STARTCHAR oslash
ENCODING 28
SWIDTH 1015 0
DWIDTH 17 0
BBX 14 11 1 -1
BITMAP
0044
0198
0660
1980
6600
8800
6600
1980
0660
0198
0044
ENDCHAR
STARTCHAR AE
ENCODING 29
SWIDTH 1015 0
DWIDTH 17 0
BBX 14 11 1 -1
BITMAP
8800
6600
1980
0660
0198
0044
0198
0660
1980
6600
8800
ENDCHAR
STARTCHAR OE
ENCODING 30
SWIDTH 776 0
DWIDTH 13 0
BBX 10 10 1 -1
BITMAP
0040
0040
0040
0080
0300
fc00
0700
0080
0040
0040
ENDCHAR
STARTCHAR Oslash
ENCODING 31
SWIDTH 776 0
DWIDTH 13 0
BBX 10 10 1 -1
BITMAP
8000
8000
8000
4000
3000
0fc0
3800
4000
8000
8000
ENDCHAR
STARTCHAR tilde
ENCODING 32
SWIDTH 1015 0
DWIDTH 17 0
BBX 14 5 1 2
BITMAP
2000
4000
fffc
4000
2000
ENDCHAR
STARTCHAR exclam
ENCODING 33
SWIDTH 1015 0
DWIDTH 17 0
BBX 14 5 1 2
BITMAP
0010
0008
fffc
0008
0010
ENDCHAR
STARTCHAR quotedblright
ENCODING 34
SWIDTH 478 0
DWIDTH 8 0
BBX 5 15 1 -3
BITMAP
20
70
a8
20
20
20
20
20
20
20
20
20
20
20
20
ENDCHAR
STARTCHAR numbersign
ENCODING 35
SWIDTH 478 0
DWIDTH 8 0
BBX 5 15 1 -3
BITMAP
20
20
20
20
20
20
20
20
20
20
20
20
a8
70
20
ENDCHAR
STARTCHAR dollar
ENCODING 36
SWIDTH 1015 0
DWIDTH 17 0
BBX 14 5 1 2
BITMAP
2010
4008
fffc
4008
2010
ENDCHAR
STARTCHAR percent
ENCODING 37
SWIDTH 1015 0
DWIDTH 17 0
BBX 14 14 1 -2
BITMAP
003c
000c
0014
0024
0040
0080
0100
0200
0400
0800
1000
2000
4000
8000
ENDCHAR
STARTCHAR ampersand
ENCODING 38
SWIDTH 1015 0
DWIDTH 17 0
BBX 14 14 1 -3
BITMAP
8000
4000
2000
1000
0800
0400
0200
0100
0080
0040
0024
0014
000c
003c
ENDCHAR
STARTCHAR quoteright
ENCODING 39
SWIDTH 776 0
DWIDTH 13 0
BBX 10 8 1 0
BITMAP
7040
4840
8480
8380
0000
0000
0000
ffc0
ENDCHAR
STARTCHAR parenleft
ENCODING 40
SWIDTH 1015 0
DWIDTH 17 0
BBX 13 9 2 0
BITMAP
0800
1000
3ff8
c000
8000
4000
3ff8
1000
0800
ENDCHAR
STARTCHAR parenright
ENCODING 41
SWIDTH 1015 0
DWIDTH 17 0
BBX 13 9 1 0
BITMAP
0080
0040
ffe0
0018
0008
0010
ffe0
0040
0080
ENDCHAR
STARTCHAR asterisk
ENCODING 42
SWIDTH 597 0
DWIDTH 10 0
BBX 10 14 0 -3
BITMAP
0c00
0c00
1200
2100
e1c0
2100
2100
2100
2100
2100
2100
2100
2100
2100
ENDCHAR
STARTCHAR plus
ENCODING 43
SWIDTH 597 0
DWIDTH 10 0
BBX 10 14 0 -2
BITMAP
2100
2100
2100
2100
2100
2100
2100
2100
2100
e1c0
2100
1200
0c00
0c00
ENDCHAR
STARTCHAR comma
ENCODING 44
SWIDTH 1015 0
DWIDTH 17 0
BBX 12 9 2 0
BITMAP
1080
2040
7fe0
8010
8010
4020
3fc0
2040
1080
ENDCHAR
STARTCHAR hyphen
ENCODING 45
SWIDTH 1015 0
DWIDTH 17 0
BBX 14 14 1 -2
BITMAP
f000
c000
a000
9000
0800
0400
0200
0100
0080
0040
0020
0010
0008
0004
ENDCHAR
STARTCHAR period
ENCODING 46
SWIDTH 1015 0
DWIDTH 17 0
BBX 14 14 1 -3
BITMAP
0004
0008
0010
0020
0040
0080
0100
0200
0400
0800
9000
a000
c000
f000
ENDCHAR
STARTCHAR slash
ENCODING 47
SWIDTH 776 0
DWIDTH 13 0
BBX 10 7 1 0
BITMAP
70c0
4900
8600
8600
8600
4900
70c0
ENDCHAR
STARTCHAR 0
ENCODING 48
SWIDTH 298 0
DWIDTH 5 0
BBX 4 9 0 0
BITMAP
30
30
20
60
60
40
c0
80
80
ENDCHAR
STARTCHAR 1
ENCODING 49
SWIDTH 1015 0
DWIDTH 17 0
BBX 14 7 1 0
BITMAP
3870
4488
8304
8304
8304
4488
3870
ENDCHAR
STARTCHAR 2
ENCODING 50
SWIDTH 657 0
DWIDTH 11 0
BBX 8 11 1 -1
BITMAP
1f
20
40
80
80
ff
80
80
40
20
1f
ENDCHAR
STARTCHAR 3
ENCODING 51
SWIDTH 657 0
DWIDTH 11 0
BBX 8 11 1 -1
BITMAP
f8
04
02
01
01
ff
01
01
02
04
f8
ENDCHAR
STARTCHAR 4
ENCODING 52
SWIDTH 956 0
DWIDTH 16 0
BBX 13 12 1 0
BITMAP
0200
0500
0500
0880
0880
1040
1040
2020
2020
4010
4010
fff8
ENDCHAR
STARTCHAR 5
ENCODING 53
SWIDTH 956 0
DWIDTH 16 0
BBX 13 12 1 -3
BITMAP
fff8
4010
4010
2020
2020
1040
1040
0880
0880
0500
0500
0200
ENDCHAR
STARTCHAR 6
ENCODING 54
SWIDTH 0 0
DWIDTH 0 0
BBX 8 15 2 -3
BITMAP
01
02
02
04
04
08
08
08
10
10
20
20
40
40
80
ENDCHAR
STARTCHAR 7
ENCODING 55
SWIDTH 0 0
DWIDTH 0 0
BBX 1 7 1 1
BITMAP
80
80
80
80
80
80
80
ENDCHAR
STARTCHAR 8
ENCODING 56
SWIDTH 597 0
DWIDTH 10 0
BBX 9 12 0 0
BITMAP
8080
8080
4100
4100
7f00
2200
2200
1400
1400
1400
0800
0800
ENDCHAR
STARTCHAR 9
ENCODING 57
SWIDTH 537 0
DWIDTH 9 0
BBX 6 12 1 0
BITMAP
fc
04
04
04
04
7c
04
04
04
04
04
fc
ENDCHAR
STARTCHAR colon
ENCODING 58
SWIDTH 657 0
DWIDTH 11 0
BBX 8 5 1 1
BITMAP
ff
01
01
01
01
ENDCHAR
STARTCHAR semicolon
ENCODING 59
SWIDTH 478 0
DWIDTH 8 0
BBX 5 13 1 -1
BITMAP
70
50
98
98
a8
a8
a8
a8
a8
c8
50
70
40
ENDCHAR
STARTCHAR less
ENCODING 60
SWIDTH 717 0
DWIDTH 12 0
BBX 11 12 0 0
BITMAP
3300
4c80
44c0
4440
2420
27c0
6500
6500
0500
0500
c920
30c0
ENDCHAR
STARTCHAR equal
ENCODING 61
SWIDTH 717 0
DWIDTH 12 0
BBX 10 12 1 0
BITMAP
3c00
4200
8140
80c0
8000
40c0
3140
0100
c100
2100
1100
0e00
ENDCHAR
STARTCHAR greater
ENCODING 62
SWIDTH 836 0
DWIDTH 14 0
BBX 11 11 1 0
BITMAP
ffe0
0400
0400
0400
0400
0400
0400
0400
0400
0400
0400
ENDCHAR
STARTCHAR question
ENCODING 63
SWIDTH 836 0
DWIDTH 14 0
BBX 11 11 1 0
BITMAP
0400
0400
0400
0400
0400
0400
0400
0400
0400
0400
ffe0
ENDCHAR
STARTCHAR at
ENCODING 64
SWIDTH 597 0
DWIDTH 10 0
BBX 7 12 1 0
BITMAP
88
48
44
66
a6
94
98
88
88
44
44
c2
ENDCHAR
STARTCHAR A
ENCODING 65
SWIDTH 776 0
DWIDTH 13 0
BBX 12 11 0 0
BITMAP
0040
00c0
0140
0140
0240
0440
0440
0fc0
1040
9020
6030
ENDCHAR
STARTCHAR B
ENCODING 66
SWIDTH 657 0
DWIDTH 11 0
BBX 9 11 0 0
BITMAP
3700
2880
3080
3100
2600
2300
2080
4080
4080
4300
bc00
ENDCHAR
STARTCHAR C
ENCODING 67
SWIDTH 537 0
DWIDTH 9 0
BBX 8 11 0 0
BITMAP
0e
11
21
42
40
80
80
80
80
42
3c
ENDCHAR
STARTCHAR D
ENCODING 68
SWIDTH 776 0
DWIDTH 13 0
BBX 12 11 0 0
BITMAP
1fc0
6420
8810
0810
0810
0810
0820
1020
1040
1180
3e00
ENDCHAR
STARTCHAR E
ENCODING 69
SWIDTH 537 0
DWIDTH 9 0
BBX 8 11 1 0
BITMAP
1e
21
40
40
38
20
40
80
80
84
78
ENDCHAR
STARTCHAR F
ENCODING 70
SWIDTH 717 0
DWIDTH 12 0
BBX 11 11 1 0
BITMAP
0fe0
3400
4400
0400
0400
0f80
0800
1000
1000
2000
e000
ENDCHAR
STARTCHAR G
ENCODING 71
SWIDTH 597 0
DWIDTH 10 0
BBX 9 13 0 -2
BITMAP
0f00
3080
4080
4100
8000
8100
8100
8300
4500
3a00
0200
0400
7800
ENDCHAR
STARTCHAR H
ENCODING 72
SWIDTH 836 0
DWIDTH 14 0
BBX 13 11 0 0
BITMAP
3808
4410
8410
0420
0fe0
0820
0840
1040
1040
1040
2030
ENDCHAR
STARTCHAR I
ENCODING 73
SWIDTH 537 0
DWIDTH 9 0
BBX 10 11 -1 0
BITMAP
1fc0
2200
0200
0400
0400
0400
0400
0800
0800
1100
fe00
ENDCHAR
STARTCHAR J
ENCODING 74
SWIDTH 657 0
DWIDTH 11 0
BBX 13 13 0 -2
BITMAP
01f8
0620
0840
0840
0080
0080
0080
0100
0100
8100
8200
4400
3800
ENDCHAR
STARTCHAR K
ENCODING 75
SWIDTH 776 0
DWIDTH 13 0
BBX 10 11 0 0
BITMAP
30c0
1300
2400
2800
3000
3000
2800
4800
4400
4440
8380
ENDCHAR
STARTCHAR L
ENCODING 76
SWIDTH 657 0
DWIDTH 11 0
BBX 9 11 0 0
BITMAP
0300
0480
0880
1000
1000
1000
2000
2000
2000
7880
8700
ENDCHAR
STARTCHAR M
ENCODING 77
SWIDTH 1195 0
DWIDTH 20 0
BBX 17 11 0 0
BITMAP
040080
040100
040300
0a0500
0a0500
0a0900
121200
112200
114200
208200
c00300
ENDCHAR
STARTCHAR N
ENCODING 78
SWIDTH 836 0
DWIDTH 14 0
BBX 16 12 -1 0
BITMAP
0007
0408
0408
0610
0610
0a10
0920
0920
0920
10a0
10c0
e040
ENDCHAR
STARTCHAR O
ENCODING 79
SWIDTH 776 0
DWIDTH 13 0
BBX 12 11 1 0
BITMAP
09c0
1220
2410
4810
8010
8010
8020
8020
8040
4180
3e00
ENDCHAR
STARTCHAR P
ENCODING 80
SWIDTH 717 0
DWIDTH 12 0
BBX 11 12 0 -1
BITMAP
1f80
6440
8820
0820
0820
0840
0980
1600
1000
1000
2000
2000
ENDCHAR
STARTCHAR Q
ENCODING 81
SWIDTH 836 0
DWIDTH 14 0
BBX 11 13 1 -2
BITMAP
0f80
1040
2020
4020
8020
8020
8040
4040
3d80
0600
7800
0c20
03c0
ENDCHAR
STARTCHAR R
ENCODING 82
SWIDTH 836 0
DWIDTH 14 0
BBX 12 11 0 0
BITMAP
1fc0
6420
8820
0820
0840
0880
0b00
1100
1100
1090
2060
ENDCHAR
STARTCHAR S
ENCODING 83
SWIDTH 597 0
DWIDTH 10 0
BBX 9 11 1 0
BITMAP
0f00
1080
2000
2000
1800
0600
0100
c100
8100
8200
7c00
ENDCHAR
STARTCHAR T
ENCODING 84
SWIDTH 537 0
DWIDTH 9 0
BBX 11 11 0 0
BITMAP
3fe0
4200
8200
8400
0400
0400
0400
0800
0800
1000
7c00
ENDCHAR
STARTCHAR U
ENCODING 85
SWIDTH 597 0
DWIDTH 10 0
BBX 11 11 0 0
BITMAP
7020
1040
1040
20c0
2080
4180
4280
8300
8500
9900
6180
ENDCHAR
STARTCHAR V
ENCODING 86
SWIDTH 597 0
DWIDTH 10 0
BBX 9 11 0 0
BITMAP
c100
2080
1080
1080
1100
1100
1200
1400
1800
3000
2000
ENDCHAR
STARTCHAR W
ENCODING 87
SWIDTH 956 0
DWIDTH 16 0
BBX 16 11 0 0
BITMAP
c082
20c1
2141
2141
2242
2222
2424
2824
2828
3030
2020
ENDCHAR
STARTCHAR X
ENCODING 88
SWIDTH 717 0
DWIDTH 12 0
BBX 12 11 0 0
BITMAP
0c10
0210
0220
0240
0380
0600
1a00
2100
4100
8100
c0c0
ENDCHAR
STARTCHAR Y
ENCODING 89
SWIDTH 657 0
DWIDTH 11 0
BBX 10 13 1 -2
BITMAP
6080
1040
1040
0840
0880
0880
0900
0900
0a00
0c00
8800
9000
e000
ENDCHAR
STARTCHAR Z
ENCODING 90
SWIDTH 717 0
DWIDTH 12 0
BBX 12 11 0 0
BITMAP
0ff0
1020
0040
0080
0700
0380
0400
0800
3020
4040
ff80
ENDCHAR
STARTCHAR bracketleft
ENCODING 91
SWIDTH 657 0
DWIDTH 11 0
BBX 8 10 1 0
BITMAP
81
81
81
81
81
81
81
81
42
3c
ENDCHAR
STARTCHAR leftdblquote
ENCODING 92
SWIDTH 657 0
DWIDTH 11 0
BBX 8 10 1 0
BITMAP
3c
42
81
81
81
81
81
81
81
81
ENDCHAR
STARTCHAR bracketright
ENCODING 93
SWIDTH 657 0
DWIDTH 11 0
BBX 8 10 1 0
BITMAP
81
81
81
89
bd
89
89
81
42
3c
ENDCHAR
STARTCHAR circumflex
ENCODING 94
SWIDTH 657 0
DWIDTH 11 0
BBX 8 10 1 0
BITMAP
18
18
18
24
24
24
42
42
81
81
ENDCHAR
STARTCHAR dotaccent
ENCODING 95
SWIDTH 657 0
DWIDTH 11 0
BBX 8 10 1 0
BITMAP
81
81
42
42
24
24
24
18
18
18
ENDCHAR
STARTCHAR leftquote
ENCODING 96
SWIDTH 597 0
DWIDTH 10 0
BBX 7 12 1 0
BITMAP
80
80
80
80
80
fe
80
80
80
80
80
80
ENDCHAR
STARTCHAR a
ENCODING 97
SWIDTH 597 0
DWIDTH 10 0
BBX 6 12 2 0
BITMAP
04
04
04
04
04
fc
04
04
04
04
04
04
ENDCHAR
STARTCHAR b
ENCODING 98
SWIDTH 418 0
DWIDTH 7 0
BBX 4 15 3 -3
BITMAP
80
80
80
80
80
80
80
80
80
80
80
80
80
80
f0
ENDCHAR
STARTCHAR c
ENCODING 99
SWIDTH 418 0
DWIDTH 7 0
BBX 4 15 -1 -3
BITMAP
10
10
10
10
10
10
10
10
10
10
10
10
10
10
f0
ENDCHAR
STARTCHAR d
ENCODING 100
SWIDTH 418 0
DWIDTH 7 0
BBX 4 15 3 -3
BITMAP
f0
80
80
80
80
80
80
80
80
80
80
80
80
80
80
ENDCHAR
STARTCHAR e
ENCODING 101
SWIDTH 418 0
DWIDTH 7 0
BBX 4 15 -1 -3
BITMAP
f0
10
10
10
10
10
10
10
10
10
10
10
10
10
10
ENDCHAR
STARTCHAR f
ENCODING 102
SWIDTH 478 0
DWIDTH 8 0
BBX 5 16 1 -4
BITMAP
18
20
20
20
20
20
20
c0
c0
20
20
20
20
20
20
18
ENDCHAR
STARTCHAR g
ENCODING 103
SWIDTH 478 0
DWIDTH 8 0
BBX 5 16 1 -4
BITMAP
c0
20
20
20
20
20
20
18
18
20
20
20
20
20
20
c0
ENDCHAR
STARTCHAR h
ENCODING 104
SWIDTH 358 0
DWIDTH 6 0
BBX 3 15 1 -3
BITMAP
20
20
40
40
40
40
80
80
80
40
40
40
40
20
20
ENDCHAR
STARTCHAR i
ENCODING 105
SWIDTH 358 0
DWIDTH 6 0
BBX 3 15 1 -3
BITMAP
80
80
40
40
40
40
20
20
20
40
40
40
40
80
80
ENDCHAR
STARTCHAR j
ENCODING 106
SWIDTH 298 0
DWIDTH 5 0
BBX 1 16 2 -4
BITMAP
80
80
80
80
80
80
80
80
80
80
80
80
80
80
80
80
ENDCHAR
STARTCHAR k
ENCODING 107
SWIDTH 478 0
DWIDTH 8 0
BBX 5 15 1 -3
BITMAP
88
88
88
88
88
88
88
88
88
88
88
88
88
88
88
ENDCHAR
STARTCHAR l
ENCODING 108
SWIDTH 478 0
DWIDTH 8 0
BBX 5 16 1 -4
BITMAP
20
70
a8
20
20
20
20
20
20
20
20
20
20
a8
70
20
ENDCHAR
STARTCHAR m
ENCODING 109
SWIDTH 597 0
DWIDTH 10 0
BBX 10 14 0 -3
BITMAP
0c00
1200
2100
e1c0
2100
2100
2100
2100
2100
2100
e1c0
2100
1200
0c00
ENDCHAR
STARTCHAR n
ENCODING 110
SWIDTH 478 0
DWIDTH 8 0
BBX 5 16 1 -4
BITMAP
80
80
40
40
40
40
20
20
20
20
10
10
10
10
08
08
ENDCHAR
STARTCHAR o
ENCODING 111
SWIDTH 298 0
DWIDTH 5 0
BBX 2 11 1 -1
BITMAP
80
40
40
40
40
40
80
80
80
80
40
ENDCHAR
STARTCHAR p
ENCODING 112
SWIDTH 836 0
DWIDTH 14 0
BBX 13 17 1 -16
BITMAP
0008
0010
0010
0020
0020
0040
0040
0080
0080
c100
4100
2200
2200
1400
1400
1800
0800
ENDCHAR
STARTCHAR q
ENCODING 113
SWIDTH 717 0
DWIDTH 12 0
BBX 11 11 0 0
BITMAP
f1e0
2080
2080
2080
2080
2080
2080
2080
2080
2080
ffe0
ENDCHAR
STARTCHAR r
ENCODING 114
SWIDTH 836 0
DWIDTH 14 0
BBX 11 11 1 0
BITMAP
ffe0
c060
4040
4040
2080
2080
1100
1100
0a00
0a00
0400
ENDCHAR
STARTCHAR s
ENCODING 115
SWIDTH 418 0
DWIDTH 7 0
BBX 6 15 1 -3
BITMAP
0c
0c
08
08
10
10
10
10
10
10
10
20
20
a0
c0
ENDCHAR
STARTCHAR t
ENCODING 116
SWIDTH 657 0
DWIDTH 11 0
BBX 8 10 1 0
BITMAP
81
81
81
81
81
81
81
81
81
ff
ENDCHAR
STARTCHAR u
ENCODING 117
SWIDTH 657 0
DWIDTH 11 0
BBX 8 10 1 0
BITMAP
ff
81
81
81
81
81
81
81
81
81
ENDCHAR
STARTCHAR v
ENCODING 118
SWIDTH 776 0
DWIDTH 13 0
BBX 11 14 1 -3
BITMAP
ffe0
8000
8000
8000
8000
8000
8000
8000
8000
ffe0
0000
0000
0000
ffc0
ENDCHAR
STARTCHAR w
ENCODING 119
SWIDTH 776 0
DWIDTH 13 0
BBX 11 14 0 -3
BITMAP
ffe0
0020
0020
0020
0020
0020
0020
0020
0020
7fe0
0000
0000
0000
7fe0
ENDCHAR
STARTCHAR x
ENCODING 120
SWIDTH 418 0
DWIDTH 7 0
BBX 4 15 1 -3
BITMAP
60
90
90
80
40
60
90
90
90
60
20
10
90
90
60
ENDCHAR
STARTCHAR y
ENCODING 121
SWIDTH 478 0
DWIDTH 8 0
BBX 5 15 1 -3
BITMAP
20
20
20
20
20
f8
20
20
20
20
20
20
20
20
20
ENDCHAR
STARTCHAR z
ENCODING 122
SWIDTH 478 0
DWIDTH 8 0
BBX 5 15 1 -3
BITMAP
20
20
20
f8
20
20
20
00
20
20
20
f8
20
20
20
ENDCHAR
STARTCHAR endash
ENCODING 123
SWIDTH 597 0
DWIDTH 10 0
BBX 8 15 1 -3
BITMAP
3f
72
f2
f2
f2
f2
72
32
12
12
12
12
12
12
12
ENDCHAR
STARTCHAR emdash
ENCODING 124
SWIDTH 836 0
DWIDTH 14 0
BBX 13 14 0 -2
BITMAP
0700
0f80
1fc0
1fc0
0f80
0f80
7ff0
fff8
fff8
fff8
faf8
7270
0200
0200
ENDCHAR
STARTCHAR quotedbl
ENCODING 125
SWIDTH 836 0
DWIDTH 14 0
BBX 10 14 2 -2
BITMAP
0800
1400
1400
2200
4100
4100
80c0
8080
4100
4100
2200
1400
1400
0800
ENDCHAR
STARTCHAR hungarumlaut
ENCODING 126
SWIDTH 836 0
DWIDTH 14 0
BBX 11 12 1 0
BITMAP
7bc0
8420
8420
8020
8020
4040
4040
2080
1100
0a00
0400
0400
ENDCHAR
STARTCHAR dieresis
ENCODING 127
SWIDTH 836 0
DWIDTH 14 0
BBX 11 14 1 -2
BITMAP
0400
0400
0e00
1f00
3f80
7fc0
ffe0
ffe0
ffe0
ffe0
f5e0
64c0
0400
0400
ENDCHAR
ENDFONT
